# xmcd CD database file
#
# Track frame offsets:
#	150
#	12823
#	27843
#	37980
#	52211
#	66716
#	78231
#	88656
#	104903
#	121580
#	134113
#	148171
#	162186
#	175458
#	189311
#	204270
#
# Disc length: 2902 seconds
#
# Revision: 0
# Processed by: cddbd v1.5.2PL0 Copyright (c) Steve Scherf et al.
# Submitted via: CDex 1.50beta10
#
DISCID=e60b5410
DTITLE=Canned Heat - On The Road Again
DYEAR=1968
DGENRE=Blues
TTITLE0=Going Up The Country
TTITLE1=On The Road Again
TTITLE2=Bullfrog Blues
TTITLE3=The Road Song
TTITLE4=Dust My Broom
TTITLE5=Sic' Em Pigs
TTITLE6=Evil Is Going On
TTITLE7=The Story Of My Live
TTITLE8=Going Down Slow
TTITLE9=Same All Over
TTITLE10=Big Road Blues
TTITLE11=Help Me
TTITLE12=Rich Woman
TTITLE13=Rollin' An Tumblin'
TTITLE14=Time Was
TTITLE15=Boogie Music
EXTD=YEAR: 1968
EXTT0=
EXTT1=
EXTT2=
EXTT3=
EXTT4=
EXTT5=
EXTT6=
EXTT7=
EXTT8=
EXTT9=
EXTT10=
EXTT11=
EXTT12=
EXTT13=
EXTT14=
EXTT15=
PLAYORDER=
